<svg width="200" height="200" viewBox="0 0 200 200" fill="none" xmlns="http://www.w3.org/2000/svg">
<circle cx="100" cy="100" r="100" fill="black"/>
<mask id="mask0_2341_6082" style="mask-type:alpha" maskUnits="userSpaceOnUse" x="0" y="0" width="200" height="200">
<circle cx="100" cy="100" r="100" fill="black"/>
</mask>
<g mask="url(#mask0_2341_6082)">
<circle cx="36.2965" cy="40.7407" r="3.7037" fill="#FDF7FA"/>
<circle cx="47.7779" cy="74.4445" r="2.22222" fill="#FDF7FA"/>
<circle cx="113.704" cy="142.963" r="2.22222" fill="#FDF7FA"/>
<circle cx="169.259" cy="63.3333" r="2.22222" fill="#FDF7FA"/>
<circle cx="63.7037" cy="7.4074" r="2.22222" fill="#FDF7FA"/>
<circle cx="118.889" cy="11.4815" r="2.22222" fill="#FDF7FA"/>
<circle cx="161.111" cy="30.7407" r="3.7037" fill="#FDF7FA"/>
<circle cx="11.1109" cy="144.444" r="2.96296" fill="#FDF7FA"/>
<circle cx="198.889" cy="80.3704" r="2.96296" fill="#FDF7FA"/>
<circle cx="97.0372" cy="63.7037" r="2.96296" fill="#FDF7FA"/>
<circle cx="130.741" cy="44.8147" r="1.48148" fill="#FDF7FA"/>
<circle cx="137.407" cy="100" r="1.48148" fill="#FDF7FA"/>
<circle cx="73.7037" cy="39.6297" r="1.48148" fill="#FDF7FA"/>
<circle cx="39.2593" cy="164.815" r="1.48148" fill="#FDF7FA"/>
<circle cx="171.111" cy="93.3333" r="1.48148" fill="#FDF7FA"/>
<circle cx="122.222" cy="182.963" r="3.7037" fill="#FDF7FA"/>
<circle cx="168.889" cy="155.926" r="27.7778" fill="#BB00AC"/>
<path fill-rule="evenodd" clip-rule="evenodd" d="M149.586 175.902C144.36 170.851 141.111 163.768 141.111 155.926C141.111 140.585 153.547 128.148 168.888 128.148C178.949 128.148 187.761 133.497 192.635 141.506C187.637 136.676 180.832 133.704 173.333 133.704C157.991 133.704 145.555 146.14 145.555 161.482C145.555 166.762 147.028 171.698 149.586 175.902Z" fill="black" fill-opacity="0.25"/>
<circle cx="158.889" cy="166.667" r="5.55556" fill="black" fill-opacity="0.25"/>
<circle cx="153.703" cy="142.963" r="4.44444" fill="black" fill-opacity="0.25"/>
<circle cx="185.185" cy="149.259" r="6.66667" fill="black" fill-opacity="0.25"/>
<circle cx="149.629" cy="159.63" r="3.7037" fill="black" fill-opacity="0.25"/>
<circle cx="172.962" cy="140" r="3.7037" fill="black" fill-opacity="0.25"/>
<circle cx="148.889" cy="167.037" r="1.85185" fill="black" fill-opacity="0.25"/>
<circle cx="161.111" cy="142.593" r="1.11111" fill="black" fill-opacity="0.25"/>
<circle cx="184.074" cy="139.259" r="1.85185" fill="black" fill-opacity="0.25"/>
<circle cx="167.778" cy="132.593" r="0.740741" fill="black" fill-opacity="0.25"/>
<circle cx="188.518" cy="140.741" r="0.740741" fill="black" fill-opacity="0.25"/>
<circle cx="171.852" cy="132.222" r="2.22222" fill="black" fill-opacity="0.25"/>
<path d="M23.5647 134.382L46.9312 164.089C47.2654 164.514 47.7546 164.788 48.2913 164.853C48.828 164.917 49.3681 164.765 49.7929 164.431L123.04 106.817C123.218 106.676 123.372 106.507 123.495 106.316C124.35 105.655 124.993 104.758 125.346 103.737L136.982 76.9874C137.331 76.4128 137.6 75.7938 137.783 75.147L137.821 75.0599C137.841 74.9967 137.855 74.9315 137.862 74.8655C137.864 74.8511 137.866 74.8366 137.868 74.8221C137.934 74.5406 137.984 74.2556 138.018 73.9685C138.491 70.0061 135.828 66.4299 132.068 65.9809C131.58 65.9223 131.086 65.919 130.597 65.971C130.548 65.9675 130.498 65.9678 130.448 65.9718L130.211 66.0242C129.986 66.0618 129.763 66.1113 129.543 66.1722L100.434 72.6229C99.3352 72.7208 98.2824 73.1096 97.3837 73.7493C97.3035 73.7965 97.2265 73.849 97.1534 73.9065L23.9065 131.521C23.6962 131.686 23.5204 131.891 23.3894 132.125C23.2584 132.358 23.1746 132.615 23.1428 132.881C23.1111 133.146 23.132 133.416 23.2044 133.673C23.2768 133.931 23.3992 134.172 23.5647 134.382Z" fill="#4CD1FF"/>
<path d="M137.284 76.0158C137.832 74.6824 135.398 71.4091 133.973 71.6278L102.38 77.6564C102.06 77.7055 101.759 77.8377 101.505 78.0396C101.252 78.2416 101.057 78.5063 100.938 78.8075C100.819 79.1086 100.781 79.4356 100.828 79.756C100.875 80.0763 101.005 80.3788 101.205 80.6332L121.476 106.632C122.353 107.747 124.622 105.792 125.162 104.481L137.284 76.0158Z" fill="#7FDEFF"/>
<path d="M104.163 78.5454L123.864 103.592C124.559 104.477 124.406 105.758 123.522 106.454L49.8381 164.412C48.9534 165.107 47.6722 164.954 46.9763 164.07L27.2753 139.023C26.5794 138.138 26.7325 136.857 27.6171 136.161L101.301 78.2036C102.185 77.5077 103.467 77.6608 104.163 78.5454Z" fill="#7FDEFF"/>
<path d="M77.0096 116.001C73.4173 111.434 73.8625 105.082 78.0232 101.541L78.1444 101.437L91.7735 90.7165C96.1554 87.2698 102.7 88.2545 106.364 92.9116C110.027 97.5687 109.442 104.162 105.06 107.608L91.4524 118.312L91.3009 118.422C86.8793 121.631 80.6018 120.568 77.0096 116.001ZM75.9902 116.803C80.0092 121.912 87.1198 123.059 92.0628 119.471L92.0678 119.478L105.862 108.628C110.814 104.733 111.495 97.3373 107.383 92.1098C103.271 86.8823 95.9235 85.8021 90.9717 89.6971L77.1775 100.547L77.1826 100.554C72.5314 104.512 71.9712 111.693 75.9902 116.803Z" fill="#BB00AC"/>
<path d="M91.2233 116.598L91.2272 116.603L103.166 107.213C107.451 103.842 108.362 97.8492 105.199 93.828C102.036 89.8069 95.9973 89.2799 91.7116 92.6509L79.7731 102.041L79.777 102.046C75.7375 105.455 74.9375 111.269 78.029 115.199C81.1204 119.129 86.9593 119.721 91.2233 116.598Z" fill="#D652D6"/>
<path d="M91.4208 116.444L91.4241 116.449L102.979 107.36C107.127 104.097 108.336 98.7149 105.679 95.3365C103.021 91.9581 97.5053 91.8653 93.3573 95.128L81.8027 104.217L81.806 104.221C77.882 107.501 76.7856 112.719 79.3825 116.02C81.9794 119.322 87.3083 119.485 91.4208 116.444Z" fill="#E07BE0"/>
<path d="M100.254 106.761L100.255 106.762L102.531 104.972C103.349 104.329 103.55 103.221 102.98 102.497C102.411 101.773 101.287 101.708 100.47 102.35L98.1931 104.141L98.1938 104.142C97.4222 104.79 97.2427 105.865 97.7992 106.572C98.3558 107.28 99.4427 107.358 100.254 106.761Z" fill="#FDF7FA"/>
<path d="M96.8036 107.356C96.2343 106.632 95.1102 106.567 94.2929 107.21C93.4757 107.852 93.2746 108.96 93.844 109.684C94.4134 110.408 95.5375 110.474 96.3547 109.831C97.1719 109.188 97.373 108.08 96.8036 107.356Z" fill="#FDF7FA"/>
<path d="M128.411 84.5808L119.639 73.3014L119.647 73.2848L119.617 73.2471C118.81 74.5554 118.286 76.0183 118.079 77.5415C117.963 78.446 118.011 79.3641 118.22 80.2518C118.409 81.0522 118.759 81.8057 119.25 82.4662C119.74 83.1267 120.359 83.6804 121.071 84.0935C121.748 84.4845 122.484 84.7625 123.25 84.9164C124.829 85.2446 126.613 85.1288 128.411 84.5813L128.411 84.5808Z" fill="#E07BE0"/>
<path d="M127.987 66.4602L136.758 77.7405L136.751 77.7571L136.78 77.7948C137.587 76.4864 138.111 75.0236 138.318 73.5004C138.434 72.5961 138.387 71.6783 138.178 70.7908C137.973 69.9348 137.586 69.1329 137.043 68.4399C136.57 67.8397 135.987 67.334 135.326 66.9495C134.65 66.5584 133.913 66.2805 133.147 66.1265C131.568 65.7984 129.784 65.9142 127.986 66.4617L127.987 66.4602Z" fill="#D652D6"/>
<path d="M137.429 71.3057C135.517 68.8752 130.44 69.6796 126.089 73.1016C121.739 76.5237 119.761 81.2687 121.673 83.6992C123.585 86.1298 128.661 85.3265 133.013 81.9033C137.365 78.4802 139.341 73.7363 137.429 71.3057Z" fill="#E07BE0"/>
<path d="M136.779 77.7422L128.027 66.4444L114.871 69.293L131.251 90.1166L136.779 77.7422Z" fill="#D652D6"/>
<path d="M136.803 77.7492L131.121 70.3886L118.951 74.4799L131.2 90.0528L136.803 77.7492Z" fill="#E07BE0"/>
<path d="M85.3789 136.474L59.4926 103.564" stroke="#BB00AC" stroke-width="5.00226"/>
<path d="M69.7275 148.785L43.8413 115.875" stroke="#BB00AC" stroke-width="5.00226"/>
<path d="M53.459 161.582L27.5727 128.672" stroke="#BB00AC" stroke-width="5.00226"/>
<path d="M64.6509 119.419L71.7524 128.447L32.2895 159.488L25.1879 150.459L64.6509 119.419Z" fill="#D652D6"/>
<path d="M123.478 106.507L97.5913 73.5967" stroke="#BB00AC" stroke-width="5.00226"/>
<path d="M123.49 77.6253L126.112 75.5636C126.594 75.184 127.293 75.2675 127.673 75.7501L127.902 76.0413C128.281 76.5238 128.198 77.2227 127.715 77.6023L125.094 79.664C124.612 80.0436 123.913 79.9601 123.533 79.4775L123.304 79.1863C122.924 78.7038 123.008 78.0049 123.49 77.6253Z" fill="#BB00AC"/>
<path d="M125.412 80.2806L128.033 78.2189C128.516 77.8393 129.214 77.9228 129.594 78.4053L129.823 78.6966C130.203 79.1791 130.119 79.878 129.637 80.2575L127.015 82.3193C126.533 82.6988 125.834 82.6153 125.454 82.1328L125.225 81.8416C124.846 81.359 124.929 80.6602 125.412 80.2806Z" fill="#BB00AC"/>
<path d="M121.546 75.1541L124.167 73.0924C124.65 72.7128 125.349 72.7963 125.728 73.2789L125.957 73.5701C126.337 74.0527 126.253 74.7515 125.771 75.1311L123.15 77.1928C122.667 77.5724 121.968 77.4889 121.589 77.0063L121.36 76.7151C120.98 76.2326 121.064 75.5337 121.546 75.1541Z" fill="#BB00AC"/>
<path d="M54.2288 159.184C54.2652 158.879 54.5418 158.661 54.8466 158.698C55.1514 158.734 55.3689 159.011 55.3325 159.315C55.2961 159.62 55.0195 159.838 54.7147 159.801C54.4099 159.765 54.1923 159.488 54.2288 159.184Z" fill="#BB00AC"/>
<path d="M53.2571 157.948C53.2935 157.643 53.5701 157.425 53.8749 157.462C54.1797 157.498 54.3973 157.775 54.3609 158.08C54.3244 158.385 54.0478 158.602 53.743 158.566C53.4382 158.529 53.2207 158.253 53.2571 157.948Z" fill="#BB00AC"/>
<path d="M70.3362 146.181C70.3726 145.876 70.6492 145.658 70.954 145.695C71.2588 145.731 71.4764 146.008 71.44 146.312C71.4035 146.617 71.1269 146.835 70.8221 146.798C70.5173 146.762 70.2998 146.485 70.3362 146.181Z" fill="#BB00AC"/>
<path d="M69.3645 144.945C69.4009 144.64 69.6775 144.423 69.9823 144.459C70.2871 144.496 70.5047 144.772 70.4683 145.077C70.4319 145.382 70.1553 145.599 69.8505 145.563C69.5457 145.527 69.3281 145.25 69.3645 144.945Z" fill="#BB00AC"/>
<path d="M85.9875 133.87C86.024 133.565 86.3006 133.347 86.6054 133.384C86.9102 133.42 87.1277 133.697 87.0913 134.002C87.0549 134.307 86.7783 134.524 86.4735 134.488C86.1687 134.451 85.9511 134.175 85.9875 133.87Z" fill="#BB00AC"/>
<path d="M85.0154 132.634C85.0518 132.329 85.3284 132.112 85.6332 132.148C85.938 132.185 86.1556 132.461 86.1192 132.766C86.0827 133.071 85.8061 133.288 85.5013 133.252C85.1965 133.216 84.979 132.939 85.0154 132.634Z" fill="#BB00AC"/>
<path d="M61.5276 102.773C61.564 102.468 61.8406 102.251 62.1454 102.287C62.4502 102.324 62.6678 102.6 62.6314 102.905C62.5949 103.21 62.3183 103.427 62.0135 103.391C61.7087 103.355 61.4912 103.078 61.5276 102.773Z" fill="#BB00AC"/>
<path d="M62.4998 104.009C62.5362 103.704 62.8128 103.487 63.1176 103.523C63.4224 103.559 63.6399 103.836 63.6035 104.141C63.5671 104.446 63.2905 104.663 62.9857 104.627C62.6809 104.59 62.4633 104.314 62.4998 104.009Z" fill="#BB00AC"/>
<path d="M123.924 103.697C123.96 103.392 124.237 103.174 124.542 103.211C124.847 103.247 125.064 103.524 125.028 103.828C124.991 104.133 124.715 104.351 124.41 104.314C124.105 104.278 123.888 104.001 123.924 103.697Z" fill="#BB00AC"/>
<path d="M122.952 102.461C122.989 102.156 123.265 101.939 123.57 101.975C123.875 102.011 124.093 102.288 124.056 102.593C124.02 102.898 123.743 103.115 123.438 103.079C123.134 103.042 122.916 102.766 122.952 102.461Z" fill="#BB00AC"/>
<path d="M99.9744 73.7307C100.011 73.4259 100.287 73.2083 100.592 73.2447C100.897 73.2811 101.115 73.5577 101.078 73.8625C101.042 74.1673 100.765 74.3849 100.46 74.3485C100.156 74.3121 99.938 74.0355 99.9744 73.7307Z" fill="#BB00AC"/>
<path d="M100.947 74.9664C100.983 74.6616 101.26 74.444 101.564 74.4804C101.869 74.5169 102.087 74.7935 102.05 75.0983C102.014 75.4031 101.737 75.6206 101.432 75.5842C101.128 75.5478 100.91 75.2712 100.947 74.9664Z" fill="#BB00AC"/>
<path d="M66.369 121.603L71.7524 128.447L32.2895 159.488L26.906 152.644L66.369 121.603Z" fill="#E07BE0"/>
<path d="M56.7948 167.761L53.2551 163.337L52.1714 164.185L55.6948 168.569L56.7948 167.761Z" fill="#8A007F"/>
<path d="M84.0241 218.289C84.0241 218.289 104.259 205.926 104.613 195.717C104.953 185.949 87.4316 178.386 98.976 151.612L120.423 110.759L70.4974 149.902C70.3301 150.019 70.2419 150.081 70.2419 150.081L44.8122 169.939L84.0241 218.289Z" fill="#D652D6"/>
<path d="M84.0243 218.289C84.0243 218.289 104.262 205.902 104.619 195.676C104.96 185.923 87.549 178.369 98.882 151.753L114.242 122.498L65.916 160.989L48.457 173.935L84.0243 218.289Z" fill="#E07BE0"/>
<path d="M89.9501 214.306L50.9515 165.136L44.5872 169.958L83.8417 218.52L86.7149 216.639L89.9501 214.306Z" fill="#BB00AC"/>
<path d="M92.3843 212.328L53.2588 163.338L52.1695 164.187L91.4815 213.038L92.3843 212.328Z" fill="#BB00AC"/>
<path d="M59.2657 211.783L78.1963 196.893C80.7067 194.918 82.3298 192.028 82.7087 188.856C83.0875 185.685 82.191 182.493 80.2165 179.983C78.2419 177.472 75.3509 175.849 72.1796 175.47C69.0083 175.091 65.8163 175.988 63.306 177.962L44.3754 192.853L59.2657 211.783Z" fill="#1AC4FF"/>
<path d="M85.0147 195.13C85.5001 191.066 89.1882 188.165 93.2522 188.651C97.3161 189.136 100.217 192.824 99.7316 196.888C99.2461 200.952 95.558 203.853 91.4941 203.368C87.4301 202.882 84.5292 199.194 85.0147 195.13Z" fill="#2D52C3"/>
<path d="M87.3952 195.508C87.8382 191.799 90.9564 189.123 94.36 189.529C97.7636 189.936 100.164 193.272 99.7206 196.98C99.2776 200.688 96.1593 203.365 92.7557 202.959C89.3522 202.552 86.9522 199.216 87.3952 195.508Z" fill="#1AC4FF"/>
<path d="M54.4355 169.518L50.9537 165.139L44.5782 169.974L48.2539 174.49L54.4355 169.518Z" fill="#8A007F"/>
<path d="M89.9596 195.907C90.3116 192.961 92.6148 190.814 95.104 191.111C97.5932 191.408 99.3257 194.038 98.9737 196.984C98.6218 199.931 96.3185 202.078 93.8294 201.781C91.3402 201.483 89.6076 198.854 89.9596 195.907Z" fill="#7FDEFF"/>
<path d="M98.6824 196.296C98.6849 195.182 98.2147 193.155 97.4689 193.447C96.7231 193.739 97.4374 195.07 97.4568 196.15C97.4763 197.23 96.5727 198.422 97.3001 198.91C98.0275 199.398 98.6799 197.411 98.6824 196.296Z" fill="#FDF7FA"/>
<path d="M96.4257 199.572C96.456 199.318 96.6865 199.137 96.9405 199.167C97.1945 199.197 97.3758 199.428 97.3455 199.682C97.3151 199.936 97.0846 200.117 96.8306 200.087C96.5766 200.056 96.3953 199.826 96.4257 199.572Z" fill="#FDF7FA"/>
<path d="M59.2659 211.783L78.0063 197.043C83.1813 192.972 84.3971 185.885 80.7216 181.212C77.0461 176.539 69.8716 176.051 64.6966 180.122L45.9562 194.862L59.2659 211.783Z" fill="#7FDEFF"/>
<path d="M54.197 163.367C54.2334 163.062 54.51 162.845 54.8148 162.881C55.1196 162.918 55.3372 163.194 55.3008 163.499C55.2644 163.804 54.9878 164.022 54.683 163.985C54.3782 163.949 54.1606 163.672 54.197 163.367Z" fill="#8A007F"/>
<path d="M55.1692 164.603C55.2056 164.298 55.4822 164.081 55.787 164.117C56.0918 164.153 56.3094 164.43 56.273 164.735C56.2365 165.04 55.9599 165.257 55.6551 165.221C55.3503 165.184 55.1328 164.908 55.1692 164.603Z" fill="#8A007F"/>
<path d="M-18.8274 84.5434C-18.8274 84.5434 -2.04573 67.7902 7.95914 69.8497C17.5323 71.8208 20.7557 90.6305 49.4951 85.7177L94.2501 74.4982L44.4485 113.798C44.2959 113.934 44.2145 114.005 44.2145 114.005L18.9252 134.041L-18.8274 84.5434Z" fill="#D652D6"/>
<path d="M51.0244 90.6371C23.9633 95.2737 21.1141 83.406 9.63569 77.6472C-2.62085 71.4982 -15.6151 89.0832 -15.6151 89.0832L19.1121 134.098L43.1994 114.728C43.1994 114.728 60.2078 101.256 62.0762 99.9381C62.8113 99.4198 81.9882 84.1716 84.2424 82.3787L84.4954 82.1813L51.0244 90.6371Z" fill="#E07BE0"/>
<path d="M-13.4848 79.7574L25.0635 129.292L18.895 134.285L-19.0949 84.6666C-19.0949 84.6666 -17.9923 83.5446 -16.5902 82.3175C-15.1881 81.0905 -13.4848 79.7574 -13.4848 79.7574Z" fill="#BB00AC"/>
<path d="M-11.0647 77.8229L27.378 127.435L26.2998 128.317L-11.9673 78.5329L-11.0647 77.8229Z" fill="#BB00AC"/>
<path d="M-18.3369 110.138L0.593667 95.2472C3.10402 93.2727 6.29595 92.3762 9.46728 92.755C12.6386 93.1339 15.5295 94.757 17.5041 97.2674C19.4787 99.7777 20.3752 102.97 19.9963 106.141C19.6175 109.312 17.9944 112.203 15.484 114.178L-3.44658 129.068L-18.3369 110.138Z" fill="#1AC4FF"/>
<path d="M5.67221 74.3196C9.73617 74.8051 12.6371 78.4931 12.1516 82.5571C11.6661 86.6211 7.97809 89.522 3.91412 89.0365C-0.149841 88.551 -3.05078 84.863 -2.56529 80.799C-2.07981 76.735 1.60824 73.8341 5.67221 74.3196Z" fill="#2D52C3"/>
<path d="M-0.199563 81.2108C0.243439 77.5025 3.3617 74.8258 6.76527 75.2324C10.1688 75.639 12.5689 78.9749 12.1259 82.6832C11.6829 86.3916 8.56459 89.0682 5.16102 88.6616C1.75745 88.255 -0.642565 84.9192 -0.199563 81.2108Z" fill="#1AC4FF"/>
<path d="M2.81753 82.2491C3.1695 79.3027 5.47271 77.1552 7.96189 77.4526C10.4511 77.7499 12.1836 80.3795 11.8316 83.3259C11.4797 86.2723 9.17646 88.4197 6.68728 88.1224C4.1981 87.825 2.46555 85.1954 2.81753 82.2491Z" fill="#7FDEFF"/>
<path d="M11.4848 83.3734C11.2247 84.4572 10.2902 86.3163 9.63424 85.8567C8.97824 85.3971 9.98603 84.2722 10.2594 83.227C10.5328 82.1817 9.93508 80.8111 10.757 80.508C11.5789 80.2048 11.7454 82.2897 11.4848 83.3734Z" fill="#FDF7FA"/>
<path d="M9.34224 86.0574C9.59624 86.0877 9.77755 86.3182 9.74721 86.5722C9.71687 86.8262 9.48636 87.0075 9.23236 86.9772C8.97837 86.9468 8.79706 86.7163 8.8274 86.4623C8.85774 86.2083 9.08825 86.027 9.34224 86.0574Z" fill="#FDF7FA"/>
<path d="M-16.791 112.175L1.94939 97.4341C7.12442 93.3635 14.2989 93.8514 17.9744 98.5242C21.6499 103.197 20.4341 110.285 15.2591 114.355L-3.48135 129.096L-16.791 112.175Z" fill="#7FDEFF"/>
<path d="M27.6554 125.365C27.9602 125.401 28.1778 125.678 28.1414 125.983C28.105 126.287 27.8284 126.505 27.5236 126.469C27.2188 126.432 27.0012 126.156 27.0376 125.851C27.074 125.546 27.3506 125.328 27.6554 125.365Z" fill="#BB00AC"/>
<path d="M26.6828 124.129C26.9876 124.166 27.2051 124.442 27.1687 124.747C27.1323 125.052 26.8557 125.269 26.5509 125.233C26.2461 125.197 26.0285 124.92 26.065 124.615C26.1014 124.31 26.378 124.093 26.6828 124.129Z" fill="#BB00AC"/>
<path d="M45.8762 115.084C45.9126 114.779 46.1892 114.562 46.494 114.598C46.7988 114.635 47.0164 114.911 46.98 115.216C46.9436 115.521 46.667 115.738 46.3622 115.702C46.0574 115.666 45.8398 115.389 45.8762 115.084Z" fill="#BB00AC"/>
<path d="M46.8484 116.32C46.8848 116.015 47.1614 115.797 47.4662 115.834C47.771 115.87 47.9886 116.147 47.9522 116.452C47.9157 116.756 47.6391 116.974 47.3343 116.938C47.0295 116.901 46.812 116.625 46.8484 116.32Z" fill="#BB00AC"/>
<path d="M29.6072 127.881C29.6436 127.576 29.9202 127.359 30.225 127.395C30.5298 127.431 30.7474 127.708 30.7109 128.013C30.6745 128.318 30.3979 128.535 30.0931 128.499C29.7883 128.462 29.5708 128.186 29.6072 127.881Z" fill="#BB00AC"/>
<path d="M30.5793 129.117C30.6158 128.812 30.8924 128.594 31.1972 128.631C31.502 128.667 31.7195 128.944 31.6831 129.249C31.6467 129.553 31.3701 129.771 31.0653 129.734C30.7605 129.698 30.5429 129.421 30.5793 129.117Z" fill="#BB00AC"/>
</g>
</svg>
