<svg width="21" height="20" viewBox="0 0 21 20" fill="none" xmlns="http://www.w3.org/2000/svg">
<path d="M20.18 9.73C20.18 12.3106 19.1548 14.7854 17.3301 16.6101C15.5054 18.4349 13.0305 19.46 10.45 19.46C7.86941 19.46 5.39455 18.4349 3.56982 16.6101C1.74509 14.7854 0.719971 12.3106 0.719971 9.73C0.719971 7.14944 1.74509 4.67458 3.56982 2.84985C5.39455 1.02512 7.86941 0 10.45 0C13.0305 0 15.5054 1.02512 17.3301 2.84985C19.1548 4.67458 20.18 7.14944 20.18 9.73ZM7.23177 5.6507C7.11758 5.53651 6.96271 5.47236 6.80122 5.47236C6.63973 5.47236 6.48486 5.53651 6.37067 5.6507C6.25648 5.76489 6.19233 5.91976 6.19233 6.08125C6.19233 6.24274 6.25648 6.39761 6.37067 6.5118L9.59008 9.73L6.37067 12.9482C6.31413 13.0047 6.26928 13.0719 6.23868 13.1457C6.20808 13.2196 6.19233 13.2988 6.19233 13.3787C6.19233 13.4587 6.20808 13.5379 6.23868 13.6118C6.26928 13.6856 6.31413 13.7528 6.37067 13.8093C6.48486 13.9235 6.63973 13.9876 6.80122 13.9876C6.88118 13.9876 6.96036 13.9719 7.03423 13.9413C7.10811 13.9107 7.17523 13.8658 7.23177 13.8093L10.45 10.5899L13.6682 13.8093C13.7247 13.8658 13.7918 13.9107 13.8657 13.9413C13.9396 13.9719 14.0188 13.9876 14.0987 13.9876C14.1787 13.9876 14.2579 13.9719 14.3317 13.9413C14.4056 13.9107 14.4727 13.8658 14.5293 13.8093C14.5858 13.7528 14.6307 13.6856 14.6613 13.6118C14.6919 13.5379 14.7076 13.4587 14.7076 13.3787C14.7076 13.2988 14.6919 13.2196 14.6613 13.1457C14.6307 13.0719 14.5858 13.0047 14.5293 12.9482L11.3099 9.73L14.5293 6.5118C14.5858 6.45526 14.6307 6.38814 14.6613 6.31426C14.6919 6.24039 14.7076 6.16121 14.7076 6.08125C14.7076 6.00129 14.6919 5.92211 14.6613 5.84824C14.6307 5.77436 14.5858 5.70724 14.5293 5.6507C14.4727 5.59416 14.4056 5.54931 14.3317 5.51871C14.2579 5.48811 14.1787 5.47236 14.0987 5.47236C14.0188 5.47236 13.9396 5.48811 13.8657 5.51871C13.7918 5.54931 13.7247 5.59416 13.6682 5.6507L10.45 8.87011L7.23177 5.6507Z" fill="#1A3072"/>
</svg>
