<svg width="20" height="20" viewBox="0 0 20 20" fill="none" xmlns="http://www.w3.org/2000/svg">
<path d="M19.4752 16.9877L15.6858 13.1984C15.5148 13.0274 15.2829 12.9324 15.0397 12.9324H14.4202C15.4692 11.5907 16.0925 9.90324 16.0925 8.06752C16.0925 3.70054 12.554 0.162109 8.18688 0.162109C3.81978 0.162109 0.28125 3.70054 0.28125 8.06752C0.28125 12.4345 3.81978 15.9729 8.18688 15.9729C10.0227 15.9729 11.7102 15.3496 13.0519 14.3006V14.9201C13.0519 15.1634 13.1469 15.3952 13.3179 15.5662L17.1073 19.3555C17.4646 19.7128 18.0423 19.7128 18.3958 19.3555L19.4714 18.2799C19.8287 17.9227 19.8287 17.345 19.4752 16.9877ZM8.18688 12.9324C5.49972 12.9324 3.32188 10.7584 3.32188 8.06752C3.32188 5.38044 5.49592 3.20265 8.18688 3.20265C10.874 3.20265 13.0519 5.37664 13.0519 8.06752C13.0519 10.7546 10.8778 12.9324 8.18688 12.9324Z" fill="#1A3072"/>
</svg>
