<svg width="40" height="28" viewBox="0 0 40 28" fill="none" xmlns="http://www.w3.org/2000/svg">
<path d="M20.0582 -0.000196457H20.2799C22.3279 0.00727776 32.7046 0.0820203 35.5024 0.834425C36.3482 1.06405 37.119 1.51164 37.7376 2.13247C38.3563 2.75329 38.8011 3.5256 39.0278 4.37222C39.2794 5.31896 39.4563 6.57213 39.5759 7.86517L39.6008 8.12428L39.6556 8.77204L39.6755 9.03115C39.8375 11.3083 39.8574 13.4409 39.8599 13.9068V14.0937C39.8574 14.577 39.835 16.8542 39.6556 19.226L39.6357 19.4876L39.6133 19.7467C39.4887 21.1718 39.3043 22.5869 39.0278 23.6283C38.8018 24.4753 38.3572 25.2479 37.7384 25.8689C37.1197 26.4898 36.3486 26.9372 35.5024 27.1661C32.6124 27.9434 21.6278 27.9982 20.1055 28.0007H19.7518C18.9819 28.0007 15.7979 27.9858 12.4594 27.8712L12.0359 27.8562L11.8191 27.8462L11.3931 27.8288L10.9671 27.8114C8.20161 27.6893 5.56819 27.4925 4.35488 27.1636C3.50902 26.9349 2.73812 26.4879 2.1194 25.8674C1.50068 25.247 1.05588 24.4748 0.829539 23.6283C0.552993 22.5894 0.368629 21.1718 0.244059 19.7467L0.224127 19.4851L0.204196 19.226C0.0812392 17.5378 0.0131049 15.8461 -9.91821e-05 14.1535V13.847C0.00488363 13.3114 0.0248149 11.4603 0.159351 9.41732L0.176791 9.1607L0.184265 9.03115L0.204196 8.77204L0.259007 8.12428L0.283921 7.86517C0.403509 6.57213 0.580398 5.31646 0.83203 4.37222C1.05798 3.52526 1.50262 2.75258 2.12137 2.13166C2.74011 1.51073 3.51121 1.06337 4.35737 0.834425C5.57068 0.510542 8.2041 0.311229 10.9696 0.186659L11.3931 0.169219L11.8216 0.154271L12.0359 0.146797L12.4619 0.129357C14.833 0.0530567 17.2051 0.0106981 19.5774 0.00229507H20.0582V-0.000196457ZM15.9449 7.99722V20.0008L26.3017 14.0015L15.9449 7.99722Z" fill="#1A3072"/>
</svg>
